<svg xmlns="http://www.w3.org/2000/svg" viewBox="0 0 32 32">
  <defs>
    <linearGradient id="grad1" x1="0%" y1="0%" x2="100%" y2="100%">
      <stop offset="0%" style="stop-color:#6366f1;stop-opacity:1" />
      <stop offset="50%" style="stop-color:#8b5cf6;stop-opacity:1" />
      <stop offset="100%" style="stop-color:#a855f7;stop-opacity:1" />
    </linearGradient>
  </defs>
  <!-- 深色背景 -->
  <rect width="32" height="32" rx="6" fill="#020617"/>
  <!-- 渐变方形 - 代表画框 -->
  <rect x="6" y="6" width="20" height="20" rx="3" fill="url(#grad1)" opacity="0.9"/>
  <!-- 网格图案 - 代表工坊/拼图 -->
  <path d="M 10 12 L 16 12 L 16 10 L 10 10 Z M 18 14 L 22 14 L 22 12 L 18 12 Z M 10 18 L 14 18 L 14 16 L 10 16 Z M 16 22 L 22 22 L 22 20 L 16 20 Z M 10 22 L 14 22 L 14 20 L 10 20 Z M 18 18 L 22 18 L 22 16 L 18 16 Z" fill="#020617" opacity="0.3"/>
  <!-- 装饰性光点 - 代表创意/火花 -->
  <circle cx="13" cy="13" r="1.5" fill="#f8fafc" opacity="0.9"/>
  <circle cx="20" cy="20" r="1.5" fill="#f8fafc" opacity="0.9"/>
  <circle cx="13" cy="21" r="1" fill="#f8fafc" opacity="0.7"/>
  <circle cx="20" cy="15" r="1" fill="#f8fafc" opacity="0.7"/>
</svg>
